<?xml version="1.0" encoding="UTF-8"?>
<svg id="Layer_1" xmlns="http://www.w3.org/2000/svg" version="1.1" viewBox="0 0 160 160">
  <!-- Generator: Adobe Illustrator 29.3.1, SVG Export Plug-In . SVG Version: 2.1.0 Build 151)  -->
  <defs>
    <style>
      .st0 {
        fill: none;
        stroke: #e67625;
        stroke-miterlimit: 10;
        stroke-width: 4px;
      }
    </style>
  </defs>
  <g>
    <path d="M27.07,112.68l-1.03-3.13h-5.03l-1.03,3.13h-1.3l3.98-11.99h1.74l3.98,11.99h-1.3ZM21.35,108.47h4.36l-2.19-6.7-2.17,6.7Z"/>
    <path d="M30.15,100.69h6.66v1.1h-5.42v4.29h5.24v1.1h-5.24v4.41h5.62v1.1h-6.85v-11.99h0Z"/>
    <path d="M42.67,100.69c1.97,0,3.73,1.17,3.73,3.35v.71c0,1.74-1.13,2.85-2.61,3.2l2.56,4.72h-1.38l-2.43-4.57h-2.46v4.57h-1.23v-11.99h3.83,0ZM40.08,101.74v5.32h2.5c1.53,0,2.59-.84,2.59-2.41v-.52c0-1.56-1.06-2.39-2.59-2.39h-2.5Z"/>
    <path d="M52.41,100.51c2.32,0,4.26,1.36,4.26,3.87v4.61c0,2.52-1.94,3.87-4.26,3.87s-4.27-1.36-4.27-3.87v-4.61c0-2.52,1.94-3.87,4.27-3.87ZM49.37,108.89c0,1.79,1.16,2.88,3.04,2.88s3.04-1.09,3.04-2.88v-4.41c0-1.79-1.17-2.88-3.04-2.88s-3.04,1.09-3.04,2.88v4.41Z"/>
    <path d="M59.37,107.48c.49,0,.78.3.78.78s-.3.79-.78.79-.78-.3-.78-.79.29-.78.78-.78Z"/>
    <path d="M63.73,108.29v4.38h-1.23v-11.99h3.71c1.97,0,3.73,1.18,3.73,3.37v.83c0,2.21-1.76,3.4-3.73,3.4h-2.48ZM63.73,101.74v5.5h2.39c1.52,0,2.59-.85,2.59-2.43v-.64c0-1.58-1.07-2.42-2.59-2.42h-2.39Z"/>
    <path d="M75.86,100.69c1.97,0,3.73,1.17,3.73,3.35v.71c0,1.74-1.13,2.85-2.61,3.2l2.56,4.72h-1.38l-2.43-4.57h-2.46v4.57h-1.23v-11.99h3.83,0ZM73.27,101.74v5.32h2.5c1.53,0,2.59-.84,2.59-2.41v-.52c0-1.56-1.06-2.39-2.59-2.39h-2.5Z"/>
    <path d="M82.99,112.68h-1.23v-11.99h1.23v11.99h0Z"/>
    <path d="M93.09,110.55v-9.86h1.23v11.99h-1.32l-5.91-9.86v9.86h-1.23v-11.99h1.32l5.91,9.86Z"/>
    <path d="M103.87,112.3c-.77.35-1.82.56-2.97.56-2.16,0-4.12-1.49-4.12-3.88v-4.47c0-2.56,1.95-4,4.14-4,1.23,0,2.28.33,2.75.56l-.26,1.08c-.45-.18-1.42-.5-2.48-.5-1.67,0-2.92,1.11-2.92,2.95v4.29c0,1.76,1.27,2.82,3.04,2.82,1.08,0,2.07-.25,2.63-.45l.21,1.04h-.01Z"/>
    <path d="M106.03,100.69h6.66v1.1h-5.42v4.29h5.24v1.1h-5.24v4.41h5.62v1.1h-6.85v-11.99h0Z"/>
    <path d="M117.33,101.79h-3.6v-1.1h8.42v1.1h-3.58v10.89h-1.24v-10.89Z"/>
    <path d="M126.97,100.51c2.32,0,4.26,1.36,4.26,3.87v4.61c0,2.52-1.94,3.87-4.26,3.87s-4.27-1.36-4.27-3.87v-4.61c0-2.52,1.94-3.87,4.27-3.87ZM123.93,108.89c0,1.79,1.16,2.88,3.04,2.88s3.04-1.09,3.04-2.88v-4.41c0-1.79-1.17-2.88-3.04-2.88s-3.04,1.09-3.04,2.88v4.41Z"/>
    <path d="M140.9,110.55v-9.86h1.23v11.99h-1.32l-5.91-9.86v9.86h-1.23v-11.99h1.32l5.91,9.86Z"/>
  </g>
  <path class="st0" d="M138.1,80.99c0-31.84-25.81-57.66-57.66-57.66s-57.66,25.81-57.66,57.66c0,3.88.39,7.67,1.12,11.34h113.09c.73-3.67,1.12-7.46,1.12-11.34Z"/>
  <path class="st0" d="M80.44,138.65c16.16,0,30.77-6.65,41.24-17.37H39.2c10.47,10.72,25.08,17.37,41.24,17.37h0Z"/>
  <g id="XuGQBH.tif">
    <path d="M81.43,48.84c1.67.19,2.2,1.3,2.99,2.75.37.69,2,4.34,2.43,4.48.26.08.57.05.82-.08,2.25-1.49,5.71-4.77,8.35-4.77.49,0,1.04.12,1.07.75.04,1.09-2.62,3.34-3.4,4l.14.24c4.11.23,8.26.12,12.37.35.91.95-.08,1.17-.87,1.25-2.45.23-5.31.21-7.79.27-1.88.05-5.21-.35-6.86,0-.15.03-2.44,1.33-2.73,1.52-.18.12-.42.39-.36.64.09.33,1.16-.02,1.17.92,0,.78-.58.97-1.17.86.28,1.36-.32,3.04.19,4.33.79,2.03,4.01,1,5.57.93,18.31-.88,36.6-1.95,54.9-2.88,2.98-.15,5.95-.63,8.95-.4,1.88,1.3-1.18,1.84-2.09,1.97-14.44,2.03-28.93,3.55-43.37,5.4-7.78,1-15.92,1.81-23.62,3.15-.34.06-.96-.05-1.25.14-.07.05-.12,1.34-.23,1.74-.45,1.58-1.82,2.25-3.17,2.47-.34.06-1.07-.12-1.27.14-.28.37-.13,1.59-.21,2.14s-.53,1.96-.89,2.28c-1.07.96-1.35-.91-1.56-1.69-.06-.24-.24-.42-.29-.73-.08-.43-.1-1.67-.31-2.01-.15-.25-.86-.07-1.16-.14-.15-.03-.27-.19-.39-.22-2.03-.51-2.84-1.56-2.82-3.99-.68.04-1.4-.3-2.05-.38-21.57-2.87-43.22-5.32-64.77-8.29-.78-.11-3.96.02-4.22-1.16-.07-.3.38-.77.63-.82,3-.23,5.97.24,8.95.4,18.97.95,37.92,2.09,56.87,3.16,1.31.08,2.59.3,3.44-.99.58-.9.35-1.07.34-1.97,0-.37.09-2.48,0-2.57-.07-.08-1.13.27-1.18-.72-.05-1.08.97-.74,1.13-.98.11-.17.1-.99-.06-1.13-.71-.11-1.62-1.02-2.26-1.13-2.02-.32-5.16.06-7.33.01-.28,0-.53-.14-.8-.14-2.72-.07-5.43,0-8.15-.26-.51-.1-.48-1.07.35-1.19,4.21-.14,8.44.05,12.62-.39l-2.2-1.65c-.59-.53-2.12-2.16-1.49-3.04.43-.6.85-.14,1.21-.06,2.22.4,4,1.38,5.95,2.62.69.44,2.12,1.7,2.7,1.95.66.29.48-.02.65-.3.97-1.58,2.48-5.71,3.88-6.41.24-.12,1.11-.29,1.15-.34.14-.18,0-4.15,0-4.8.05-1.96.04-4.54.24-6.45.06-.58.5-1.08.88-.59.53.69.22,8.42.28,9.94.03.6.2,1.24.14,1.89h0Z"/>
  </g>
  <path class="st0" d="M80.64,150.23c23.18,0,43.69-11.43,56.22-28.95H24.43c12.52,17.53,33.03,28.95,56.22,28.95Z"/>
  <path class="st0" d="M149.68,81.19c0-38.13-30.91-69.04-69.04-69.04S11.6,43.06,11.6,81.19c0,3.79.31,7.51.9,11.13h136.28c.59-3.62.9-7.34.9-11.13h0Z"/>
  <g>
    <path d="M49.87,83.53h3.44v.15h-3.6v-5.4h3.48v.15h-3.33v5.11h0ZM49.83,80.86h3.02v.15h-3.02v-.15Z"/>
    <path d="M56.2,83.7c-.39,0-.76-.07-1.11-.22-.35-.14-.61-.33-.79-.55l.11-.1c.17.2.42.37.74.51s.67.21,1.05.21.71-.05.96-.16.44-.25.55-.44c.12-.18.18-.39.18-.6,0-.26-.06-.46-.19-.62-.12-.15-.29-.28-.5-.37-.21-.09-.43-.17-.67-.23-.24-.06-.48-.12-.73-.18-.24-.06-.47-.14-.68-.24-.21-.1-.37-.24-.5-.41s-.19-.41-.19-.69c0-.24.06-.46.19-.66.13-.21.32-.37.59-.5s.61-.19,1.03-.19c.29,0,.57.05.86.14.28.09.52.21.71.36l-.08.12c-.22-.16-.46-.28-.72-.35s-.51-.12-.76-.12c-.37,0-.69.06-.93.17s-.43.26-.55.44-.18.39-.18.61c0,.26.06.47.19.63s.29.28.5.37c.21.09.43.17.68.23.24.06.49.12.73.19s.46.15.67.24c.21.1.37.24.5.41s.19.39.19.67c0,.24-.06.46-.19.66-.13.21-.33.37-.6.5-.27.13-.62.19-1.05.19v.02Z"/>
    <path d="M60.45,83.68v-5.26h-2.01v-.15h4.17v.15h-2.01v5.26h-.15Z"/>
    <path d="M63.11,83.7c-.05,0-.1-.02-.14-.06s-.06-.09-.06-.14c0-.06.02-.1.06-.14.04-.04.09-.06.14-.06.06,0,.1.02.14.06s.06.08.06.14c0,.05-.02.1-.06.14-.04.04-.08.06-.14.06Z"/>
  </g>
  <g>
    <path d="M98.13,83.68v-.12l2.34-2.37c.23-.23.41-.44.53-.61.12-.17.2-.34.24-.49.04-.15.06-.3.06-.45,0-.38-.13-.68-.39-.91s-.63-.33-1.12-.33c-.37,0-.69.05-.97.16s-.51.27-.7.5l-.11-.11c.2-.23.45-.4.75-.51s.64-.18,1.03-.18c.34,0,.64.06.88.17.25.11.44.27.57.48s.2.45.2.74c0,.17-.03.33-.07.5-.05.17-.14.34-.26.53s-.3.4-.54.63l-2.27,2.3-.09-.06h3.53v.15h-3.62Z"/>
    <path d="M104.56,83.7c-.41,0-.77-.11-1.07-.33-.31-.23-.55-.54-.73-.95-.17-.41-.26-.89-.26-1.44s.08-1.03.26-1.44c.17-.41.41-.73.73-.95.31-.23.67-.33,1.07-.33s.77.11,1.08.33c.31.23.55.54.72.95s.26.89.26,1.44-.08,1.03-.26,1.44c-.17.41-.41.73-.72.95-.31.23-.67.33-1.08.33ZM104.56,83.55c.38,0,.71-.1,1-.32s.51-.51.67-.89.24-.84.24-1.36-.08-.98-.24-1.37-.38-.68-.67-.89c-.28-.21-.62-.32-1-.32s-.71.1-1,.32c-.29.21-.51.51-.67.89-.16.39-.24.84-.24,1.37s.08.98.24,1.36.39.68.67.89c.29.21.62.32,1,.32Z"/>
    <path d="M107.41,83.68v-.12l2.34-2.37c.23-.23.41-.44.53-.61.12-.17.2-.34.24-.49.04-.15.06-.3.06-.45,0-.38-.13-.68-.39-.91s-.63-.33-1.12-.33c-.37,0-.69.05-.97.16s-.51.27-.7.5l-.11-.11c.2-.23.45-.4.75-.51s.64-.18,1.03-.18c.34,0,.64.06.88.17.25.11.44.27.57.48s.2.45.2.74c0,.17-.03.33-.07.5-.05.17-.14.34-.26.53s-.3.4-.54.63l-2.27,2.3-.09-.06h3.53v.15h-3.62Z"/>
    <path d="M111.49,82.07v-.12l3.04-3.68h.19l-3.04,3.68-.1-.03h4.4v.15h-4.48ZM114.61,83.68v-3.17h.15v3.17h-.15Z"/>
  </g>
</svg>